M48
INCH
T01C0.0191
T02C0.035
T03C0.0354
T04C0.038
T05C0.04
T06C0.0433
T07C0.052
%
T01
X+032440Y+013690
X+033190Y+013565
X+034565Y+013565
X+035378Y+013565
X+038565Y+011502
X+039686Y+012315
X+041749Y+011628
X+044253Y+010065
X+042686Y+007691
X+045061Y+006379
X+045003Y+005065
X+038565Y+004565
X+034690Y+008002
X+032190Y+008190
X+031628Y+008065
X+031815Y+007002
X+030065Y+006752
X+027940Y+005640
X+026378Y+006252
X+026190Y+008140
X+029190Y+009627
X+029039Y+010966
X+030565Y+010002
X+031437Y+010753
X+031340Y+014740
X+027840Y+015040
X+026690Y+014440
X+025378Y+013127
X+026190Y+011815
X+024128Y+011127
X+022065Y+011127
X+021315Y+012315
X+021690Y+013502
X+022651Y+014236
X+018740Y+015340
X+017753Y+013627
X+017190Y+011690
X+015314Y+011128
X+014003Y+010065
X+013690Y+009752
X+011503Y+009002
X+011315Y+011065
X+008252Y+011627
X+007065Y+012565
X+006565Y+013190
X+004940Y+013440
X+004940Y+014065
X+005690Y+011065
X+004565Y+010065
X+008252Y+008140
X+005340Y+004840
X+014040Y+005340
X+017227Y+008140
X+018340Y+005640
X+020753Y+006502
X+022940Y+005640
X+023253Y+005065
X+020815Y+008877
X+013940Y+013440
X+014800Y+015519
X+009640Y+014740
X+008815Y+013752
T02
X+006940Y+014940
X+007940Y+014940
X+011440Y+014940
X+012440Y+014940
X+015940Y+014940
X+016940Y+014940
X+020440Y+014940
X+021440Y+014940
X+024940Y+014940
X+025940Y+014940
X+029440Y+014940
X+030440Y+014940
X+030440Y+004940
X+029440Y+004940
X+025940Y+004940
X+024940Y+004940
X+021440Y+004940
X+020440Y+004940
X+016940Y+004940
X+015940Y+004940
X+012440Y+004940
X+011440Y+004940
X+007940Y+004940
X+006940Y+004940
T03
X+040240Y+010740
X+041240Y+010740
X+042240Y+010740
X+043240Y+010740
X+043240Y+013740
X+042240Y+013740
X+041240Y+013740
X+040240Y+013740
X+033065Y+007815
X+033065Y+006815
X+033502Y+005065
X+032502Y+005065
X+031003Y+006128
X+031003Y+007128
X+021640Y+006940
X+021640Y+007940
X+021640Y+008940
X+012740Y+008940
X+012740Y+007940
X+012740Y+006940
X+012740Y+011140
X+012740Y+012140
X+012740Y+013140
T04
X+040686Y+007941
X+039686Y+007941
X+038686Y+007941
X+045373Y+008066
X+045373Y+007066
T05
X+032570Y+012315
X+028440Y+014685
X+023940Y+014685
X+019440Y+014685
X+014940Y+014685
X+010440Y+014685
X+005940Y+014685
X+005940Y+005195
X+010440Y+005195
X+014940Y+005195
X+019440Y+005195
X+023940Y+005195
X+028440Y+005195
T06
X+045190Y+015190
X+045240Y+014240
X+045240Y+013240
X+045240Y+012240
X+045240Y+011240
X+045240Y+010240
X+045190Y+009190
X+044190Y+009190
X+043190Y+009190
X+042190Y+009190
X+041190Y+009190
X+040190Y+009190
X+039190Y+009190
X+038190Y+009190
X+037190Y+009190
X+036190Y+009190
X+035190Y+009190
X+034190Y+009190
X+033190Y+009190
X+032190Y+009190
X+035940Y+007127
X+035940Y+006127
X+035940Y+005127
X+039503Y+005065
X+039503Y+006065
X+040503Y+006065
X+041503Y+006065
X+041503Y+005065
X+040503Y+005065
X+042503Y+005065
X+042503Y+006065
X+043503Y+006065
X+043503Y+005065
X+043190Y+012252
X+044190Y+012252
X+042190Y+012252
X+041190Y+012252
X+041190Y+015190
X+042190Y+015190
X+043190Y+015190
X+044190Y+015190
X+040190Y+015190
X+039190Y+015190
X+038190Y+015190
X+037190Y+015190
X+036190Y+015190
X+035190Y+015190
X+034190Y+015190
X+033190Y+015190
X+032190Y+015190
T07
X+033570Y+012315
X+036820Y+012315
X+028440Y+013685
X+028440Y+010435
X+028440Y+009445
X+028440Y+006195
X+023940Y+006195
X+023940Y+009445
X+023940Y+010435
X+023940Y+013685
X+019440Y+013685
X+019440Y+010435
X+019440Y+009445
X+019440Y+006195
X+014940Y+006195
X+014940Y+009445
X+014940Y+010435
X+014940Y+013685
X+010440Y+013685
X+010440Y+010435
X+010440Y+009445
X+010440Y+006195
X+005940Y+006195
X+005940Y+009445
X+005940Y+010435
X+005940Y+013685
T00
M30
