G04 DipTrace 3.0.0.2*
G04 magpie_midi01.GBS*
%MOIN*%
G04 #@! TF.FileFunction,Soldermask,Bot*
G04 #@! TF.Part,Single*
%AMOUTLINE1*
4,1,16,
0.0415,0.005451,
0.037483,0.023051,
0.025939,0.037527,
0.009258,0.04556,
-0.009258,0.04556,
-0.02594,0.037527,
-0.037483,0.02305,
-0.0415,0.005451,
-0.0415,-0.005451,
-0.037483,-0.023051,
-0.025939,-0.037527,
-0.009258,-0.04556,
0.009258,-0.04556,
0.02594,-0.037527,
0.037483,-0.02305,
0.0415,-0.005451,
0.0415,0.005451,
0*%
%AMOUTLINE4*
4,1,16,
0.005451,-0.0415,
0.023051,-0.037483,
0.037527,-0.025939,
0.04556,-0.009258,
0.04556,0.009258,
0.037527,0.02594,
0.02305,0.037483,
0.005451,0.0415,
-0.005451,0.0415,
-0.023051,0.037483,
-0.037527,0.025939,
-0.04556,0.009258,
-0.04556,-0.009258,
-0.037527,-0.02594,
-0.02305,-0.037483,
-0.005451,-0.0415,
0.005451,-0.0415,
0*%
%AMOUTLINE7*
4,1,16,
-0.005451,0.0415,
-0.023051,0.037483,
-0.037527,0.025939,
-0.04556,0.009258,
-0.04556,-0.009258,
-0.037527,-0.02594,
-0.02305,-0.037483,
-0.005451,-0.0415,
0.005451,-0.0415,
0.023051,-0.037483,
0.037527,-0.025939,
0.04556,-0.009258,
0.04556,0.009258,
0.037527,0.02594,
0.02305,0.037483,
0.005451,0.0415,
-0.005451,0.0415,
0*%
%ADD52R,0.068X0.068*%
%ADD54C,0.082803*%
%ADD56R,0.082803X0.082803*%
%ADD58R,0.031622X0.08674*%
%ADD60C,0.068*%
%ADD61C,0.068*%
%ADD67C,0.074929*%
%ADD69C,0.073*%
%ADD71C,0.074929*%
%ADD73R,0.074929X0.074929*%
%ADD75R,0.033591X0.049339*%
%ADD77R,0.043X0.038*%
%ADD79C,0.070992*%
%ADD81R,0.070992X0.070992*%
%ADD83R,0.059181X0.067055*%
%ADD85R,0.067055X0.059181*%
%ADD87C,0.067055*%
%ADD89R,0.067055X0.067055*%
%ADD96OUTLINE1*%
%ADD99OUTLINE4*%
%ADD102OUTLINE7*%
%FSLAX26Y26*%
G04*
G70*
G90*
G75*
G01*
G04 BotMask*
%LPD*%
D89*
X4024000Y1074000D3*
D87*
X4124000D3*
X4224000D3*
X4324000D3*
Y1374000D3*
X4224000D3*
X4124000D3*
X4024000D3*
D85*
X1125251Y1025249D3*
Y950446D3*
X964000Y1394000D3*
Y1319197D3*
X1584000Y1394000D3*
Y1319197D3*
X1864000Y1404000D3*
Y1329197D3*
D83*
X2504000Y1384000D3*
X2578803D3*
D85*
X2954000Y1394000D3*
Y1319197D3*
X2734000Y594000D3*
Y668803D3*
D83*
X2329197Y444000D3*
X2404000D3*
X1894000D3*
X1968803D3*
D85*
X1594000Y574000D3*
Y648803D3*
X827745Y584000D3*
Y658803D3*
X694000Y584000D3*
Y658803D3*
X577751Y1244000D3*
Y1169197D3*
X1041501Y1244000D3*
Y1169197D3*
X1498997Y1244000D3*
Y1169197D3*
X1964000Y1254000D3*
Y1179197D3*
X2384000Y1264000D3*
Y1189197D3*
X2854000Y1224000D3*
Y1149197D3*
Y834000D3*
Y759197D3*
X2384000Y794000D3*
Y719197D3*
X1935252Y804000D3*
Y729197D3*
X1494000Y814000D3*
Y739197D3*
X1054000Y794000D3*
Y719197D3*
X594000Y844000D3*
Y769197D3*
D81*
X3100251Y612751D3*
D79*
Y712751D3*
D81*
X3306500Y781500D3*
D79*
Y681500D3*
D85*
X2131500Y1156500D3*
Y1081697D3*
X2026388Y987749D3*
Y912946D3*
X2972694Y1082101D3*
Y1007298D3*
X3469000Y644000D3*
Y718803D3*
Y544000D3*
Y469197D3*
D83*
X444000Y1094000D3*
X518803D3*
D81*
X3350249Y506500D3*
D79*
X3250249D3*
D87*
X694000Y1494000D3*
D89*
X794000D3*
D87*
X1144000D3*
D89*
X1244000D3*
D87*
X1594000D3*
D89*
X1694000D3*
D87*
X2044000D3*
D89*
X2144000D3*
D87*
X2494000D3*
D89*
X2594000D3*
D87*
X2944000D3*
D89*
X3044000D3*
D87*
X2944000Y494000D3*
D89*
X3044000D3*
D87*
X2494000D3*
D89*
X2594000D3*
D87*
X2044000D3*
D89*
X2144000D3*
D87*
X1594000D3*
D89*
X1694000D3*
D87*
X1144000D3*
D89*
X1244000D3*
D87*
X694000D3*
D89*
X794000D3*
D77*
X3919000Y1149906D3*
Y1063598D3*
D75*
X3531500Y1244000D3*
X3456697D3*
X3494098Y1334551D3*
D73*
X4519000Y1519000D3*
D71*
X4419000D3*
X4319000D3*
X4219000D3*
X4119000D3*
X4019000D3*
X3919000D3*
X3819000D3*
X3719000D3*
X3619000D3*
X3519000D3*
X3419000D3*
X3319000D3*
X3219000D3*
D73*
X4524000Y1424000D3*
D71*
Y1324000D3*
Y1224000D3*
Y1124000D3*
Y1024000D3*
D96*
X3357000Y1231500D3*
X3682001Y1231501D3*
D69*
X3257001Y1231500D3*
D67*
X4419000Y1225249D3*
D71*
X4319000D3*
X4219000D3*
X4119000D3*
D99*
X594000Y1368500D3*
X594001Y1043499D3*
D69*
X594000Y1468499D3*
D99*
X1044000Y1368500D3*
X1044001Y1043499D3*
D69*
X1044000Y1468499D3*
D99*
X1494000Y1368500D3*
X1494001Y1043499D3*
D69*
X1494000Y1468499D3*
D99*
X1944000Y1368500D3*
X1944001Y1043499D3*
D69*
X1944000Y1468499D3*
D99*
X2394000Y1368500D3*
X2394001Y1043499D3*
D69*
X2394000Y1468499D3*
D99*
X2844000Y1368500D3*
X2844001Y1043499D3*
D69*
X2844000Y1468499D3*
D102*
X594000Y619500D3*
X593999Y944501D3*
D69*
X594000Y519501D3*
D102*
X1044000Y619500D3*
X1043999Y944501D3*
D69*
X1044000Y519501D3*
D102*
X1494000Y619500D3*
X1493999Y944501D3*
D69*
X1494000Y519501D3*
D102*
X1944000Y619500D3*
X1943999Y944501D3*
D69*
X1944000Y519501D3*
D102*
X2394000Y619500D3*
X2393999Y944501D3*
D69*
X2394000Y519501D3*
D102*
X2844000Y619500D3*
X2843999Y944501D3*
D69*
X2844000Y519501D3*
D73*
X4350255Y506500D3*
D71*
Y606500D3*
X4250255Y506500D3*
Y606500D3*
X4150255Y506500D3*
Y606500D3*
X4050255Y506500D3*
Y606500D3*
X3950255Y506500D3*
Y606500D3*
D83*
X889197Y1534000D3*
X964000D3*
X1334000Y1544000D3*
X1408803D3*
X1774000Y1534000D3*
X1848803D3*
X2211388Y1524000D3*
X2286192D3*
X2664000Y1504000D3*
X2738803D3*
X3054000Y1414000D3*
X3128803D3*
D85*
X3144000Y444000D3*
Y518803D3*
X2734000Y443833D3*
Y518636D3*
X2231500Y556501D3*
Y481698D3*
X1781500Y569000D3*
Y494197D3*
X1344000Y534000D3*
Y459197D3*
X464000Y514000D3*
Y439197D3*
X774000Y1324000D3*
Y1398803D3*
X1144000Y1324000D3*
Y1398803D3*
X1708997Y1334000D3*
Y1408803D3*
X2044000Y1334000D3*
Y1408803D3*
D83*
X2664000Y1384000D3*
X2738803D3*
X3054000Y1302753D3*
X3128803D3*
D85*
X2944000Y604000D3*
Y678803D3*
D83*
X2484000Y564000D3*
X2558803D3*
X2014000D3*
X2088803D3*
X1684000Y644000D3*
X1758803D3*
D85*
X946493Y584000D3*
Y658803D3*
X504000Y604000D3*
Y678803D3*
X656500Y1256500D3*
Y1181697D3*
X961501Y1254000D3*
Y1179197D3*
X1585247Y1174000D3*
Y1248803D3*
X1859003Y1184000D3*
Y1258803D3*
X2464000Y1194000D3*
Y1268803D3*
X2774000Y1184000D3*
Y1258803D3*
X2764000Y744000D3*
Y818803D3*
X2464000Y724000D3*
Y798803D3*
X1852753Y734000D3*
Y808803D3*
X1574000Y734000D3*
Y808803D3*
X974000Y724000D3*
Y798803D3*
X674000Y734000D3*
Y808803D3*
X494000Y1169000D3*
Y1243803D3*
X1131501Y1164000D3*
Y1238803D3*
X1412748Y1174000D3*
Y1248803D3*
X2044000Y1174000D3*
Y1248803D3*
X2304000Y1194000D3*
Y1268803D3*
X2944000Y1224000D3*
Y1149197D3*
Y894000D3*
Y819197D3*
X2304000Y814000D3*
Y739197D3*
X2024000Y744000D3*
Y818803D3*
X1414000Y824000D3*
Y749197D3*
X1134000Y724000D3*
Y798803D3*
X504000Y864000D3*
Y938803D3*
D89*
X1274000Y1314000D3*
D87*
Y1214000D3*
Y1114000D3*
D89*
Y894000D3*
D87*
Y794000D3*
Y694000D3*
D89*
X2164000Y894000D3*
D87*
Y794000D3*
Y694000D3*
D85*
X3812751Y1200251D3*
Y1275054D3*
D83*
X3569000Y1056500D3*
X3643803D3*
D61*
X4068614Y794084D3*
D60*
X3968614D3*
X3868614D3*
D67*
X4519000Y919000D3*
D71*
X4419000D3*
X4319000D3*
X4219000D3*
X4119000D3*
X4019000D3*
X3919000D3*
X3819000D3*
X3719000D3*
X3619000D3*
X3519000D3*
X3419000D3*
X3319000D3*
X3219000D3*
D58*
X675201Y1100299D3*
X725201D3*
X775201D3*
X825201D3*
X875201D3*
X925201D3*
X975201D3*
Y887701D3*
X925201D3*
X875201D3*
X825201D3*
X775201D3*
X725201D3*
X675201D3*
X1572701Y1100299D3*
X1622701D3*
X1672701D3*
X1722701D3*
X1772701D3*
X1822701D3*
X1872701D3*
Y887701D3*
X1822701D3*
X1772701D3*
X1722701D3*
X1672701D3*
X1622701D3*
X1572701D3*
X2469000Y1106598D3*
X2519000D3*
X2569000D3*
X2619000D3*
X2669000D3*
X2719000D3*
X2769000D3*
Y894000D3*
X2719000D3*
X2669000D3*
X2619000D3*
X2569000D3*
X2519000D3*
X2469000D3*
D56*
X3594000Y712749D3*
D54*
Y612749D3*
Y512749D3*
D52*
X4537315Y806583D3*
D60*
Y706583D3*
M02*
