G04 DipTrace 3.0.0.2*
G04 magpie_midi01.GTO*
%MOIN*%
G04 #@! TF.FileFunction,Legend,Top*
G04 #@! TF.Part,Single*
%ADD10C,0.009843*%
%ADD29C,0.006*%
%ADD31C,0.005984*%
%ADD91C,0.006176*%
%FSLAX26Y26*%
G04*
G70*
G90*
G75*
G01*
G04 TopSilk*
%LPD*%
X3977150Y1326367D2*
D10*
X4370850D1*
Y1121633D2*
Y1326367D1*
X3977150Y1121633D2*
X4370850D1*
X3977150D2*
Y1200374D1*
Y1326367D2*
Y1247626D1*
Y1200374D2*
G03X3977150Y1247626I-4J23626D01*
G01*
X842425Y1438882D2*
X645575D1*
Y1549118D1*
X842425D1*
Y1438882D1*
X1292425D2*
X1095575D1*
Y1549118D1*
X1292425D1*
Y1438882D1*
X1742425D2*
X1545575D1*
Y1549118D1*
X1742425D1*
Y1438882D1*
X2192425D2*
X1995575D1*
Y1549118D1*
X2192425D1*
Y1438882D1*
X2642425D2*
X2445575D1*
Y1549118D1*
X2642425D1*
Y1438882D1*
X3092425D2*
X2895575D1*
Y1549118D1*
X3092425D1*
Y1438882D1*
Y438882D2*
X2895575D1*
Y549118D1*
X3092425D1*
Y438882D1*
X2642425D2*
X2445575D1*
Y549118D1*
X2642425D1*
Y438882D1*
X2192425D2*
X1995575D1*
Y549118D1*
X2192425D1*
Y438882D1*
X1742425D2*
X1545575D1*
Y549118D1*
X1742425D1*
Y438882D1*
X1292425D2*
X1095575D1*
Y549118D1*
X1292425D1*
Y438882D1*
X842425D2*
X645575D1*
Y549118D1*
X842425D1*
Y438882D1*
X3493880Y1196469D2*
D29*
Y1266506D1*
X3528827Y1231470D2*
X3458884Y1231505D1*
X3318997Y1281522D2*
X3318947Y1406476D1*
X3318997Y1181524D2*
Y1056499D1*
X3719006Y1181489D2*
Y1056534D1*
Y1281487D2*
Y1406511D1*
X3318947Y1406476D1*
X3318997Y1056499D2*
X3719006Y1056534D1*
X3318997Y1181524D2*
D31*
X3306523Y1181489D1*
Y1281487D1*
X3318997Y1281522D1*
X558969Y1231620D2*
D29*
X629006D1*
X593970Y1196673D2*
X594005Y1266616D1*
X644022Y1406503D2*
X768976Y1406553D1*
X544024Y1406503D2*
X418999D1*
X543989Y1006494D2*
X419034D1*
X643987D2*
X769011D1*
X768976Y1406553D1*
X418999Y1406503D2*
X419034Y1006494D1*
X544024Y1406503D2*
D31*
X543989Y1418977D1*
X643987D1*
X644022Y1406503D1*
X1008969Y1231620D2*
D29*
X1079006D1*
X1043970Y1196673D2*
X1044005Y1266616D1*
X1094022Y1406503D2*
X1218976Y1406553D1*
X994024Y1406503D2*
X868999D1*
X993989Y1006494D2*
X869034D1*
X1093987D2*
X1219011D1*
X1218976Y1406553D1*
X868999Y1406503D2*
X869034Y1006494D1*
X994024Y1406503D2*
D31*
X993989Y1418977D1*
X1093987D1*
X1094022Y1406503D1*
X1458969Y1231620D2*
D29*
X1529006D1*
X1493970Y1196673D2*
X1494005Y1266616D1*
X1544022Y1406503D2*
X1668976Y1406553D1*
X1444024Y1406503D2*
X1318999D1*
X1443989Y1006494D2*
X1319034D1*
X1543987D2*
X1669011D1*
X1668976Y1406553D1*
X1318999Y1406503D2*
X1319034Y1006494D1*
X1444024Y1406503D2*
D31*
X1443989Y1418977D1*
X1543987D1*
X1544022Y1406503D1*
X1908969Y1231620D2*
D29*
X1979006D1*
X1943970Y1196673D2*
X1944005Y1266616D1*
X1994022Y1406503D2*
X2118976Y1406553D1*
X1894024Y1406503D2*
X1768999D1*
X1893989Y1006494D2*
X1769034D1*
X1993987D2*
X2119011D1*
X2118976Y1406553D1*
X1768999Y1406503D2*
X1769034Y1006494D1*
X1894024Y1406503D2*
D31*
X1893989Y1418977D1*
X1993987D1*
X1994022Y1406503D1*
X2358969Y1231620D2*
D29*
X2429006D1*
X2393970Y1196673D2*
X2394005Y1266616D1*
X2444022Y1406503D2*
X2568976Y1406553D1*
X2344024Y1406503D2*
X2218999D1*
X2343989Y1006494D2*
X2219034D1*
X2443987D2*
X2569011D1*
X2568976Y1406553D1*
X2218999Y1406503D2*
X2219034Y1006494D1*
X2344024Y1406503D2*
D31*
X2343989Y1418977D1*
X2443987D1*
X2444022Y1406503D1*
X2808969Y1231620D2*
D29*
X2879006D1*
X2843970Y1196673D2*
X2844005Y1266616D1*
X2894022Y1406503D2*
X3018976Y1406553D1*
X2794024Y1406503D2*
X2668999D1*
X2793989Y1006494D2*
X2669034D1*
X2893987D2*
X3019011D1*
X3018976Y1406553D1*
X2668999Y1406503D2*
X2669034Y1006494D1*
X2794024Y1406503D2*
D31*
X2793989Y1418977D1*
X2893987D1*
X2894022Y1406503D1*
X629031Y756380D2*
D29*
X558994D1*
X594030Y791327D2*
X593995Y721384D1*
X543978Y581497D2*
X419024Y581447D1*
X643976Y581497D2*
X769001D1*
X644011Y981506D2*
X768966D1*
X544013D2*
X418989D1*
X419024Y581447D1*
X769001Y581497D2*
X768966Y981506D1*
X643976Y581497D2*
D31*
X644011Y569023D1*
X544013D1*
X543978Y581497D1*
X1079031Y756380D2*
D29*
X1008994D1*
X1044030Y791327D2*
X1043995Y721384D1*
X993978Y581497D2*
X869024Y581447D1*
X1093976Y581497D2*
X1219001D1*
X1094011Y981506D2*
X1218966D1*
X994013D2*
X868989D1*
X869024Y581447D1*
X1219001Y581497D2*
X1218966Y981506D1*
X1093976Y581497D2*
D31*
X1094011Y569023D1*
X994013D1*
X993978Y581497D1*
X1529031Y756380D2*
D29*
X1458994D1*
X1494030Y791327D2*
X1493995Y721384D1*
X1443978Y581497D2*
X1319024Y581447D1*
X1543976Y581497D2*
X1669001D1*
X1544011Y981506D2*
X1668966D1*
X1444013D2*
X1318989D1*
X1319024Y581447D1*
X1669001Y581497D2*
X1668966Y981506D1*
X1543976Y581497D2*
D31*
X1544011Y569023D1*
X1444013D1*
X1443978Y581497D1*
X1979031Y756380D2*
D29*
X1908994D1*
X1944030Y791327D2*
X1943995Y721384D1*
X1893978Y581497D2*
X1769024Y581447D1*
X1993976Y581497D2*
X2119001D1*
X1994011Y981506D2*
X2118966D1*
X1894013D2*
X1768989D1*
X1769024Y581447D1*
X2119001Y581497D2*
X2118966Y981506D1*
X1993976Y581497D2*
D31*
X1994011Y569023D1*
X1894013D1*
X1893978Y581497D1*
X2429031Y756380D2*
D29*
X2358994D1*
X2394030Y791327D2*
X2393995Y721384D1*
X2343978Y581497D2*
X2219024Y581447D1*
X2443976Y581497D2*
X2569001D1*
X2444011Y981506D2*
X2568966D1*
X2344013D2*
X2218989D1*
X2219024Y581447D1*
X2569001Y581497D2*
X2568966Y981506D1*
X2443976Y581497D2*
D31*
X2444011Y569023D1*
X2344013D1*
X2343978Y581497D1*
X2879031Y756380D2*
D29*
X2808994D1*
X2844030Y791327D2*
X2843995Y721384D1*
X2793978Y581497D2*
X2669024Y581447D1*
X2893976Y581497D2*
X3019001D1*
X2894011Y981506D2*
X3018966D1*
X2794013D2*
X2668989D1*
X2669024Y581447D1*
X3019001Y581497D2*
X3018966Y981506D1*
X2893976Y581497D2*
D31*
X2894011Y569023D1*
X2794013D1*
X2793978Y581497D1*
X3682283Y487339D2*
D10*
Y510898D1*
X3780717Y487339D2*
Y510898D1*
X3682283Y687339D2*
Y710898D1*
X3780717Y687339D2*
Y710898D1*
X3407283Y549839D2*
Y573398D1*
X3505717Y549839D2*
Y573398D1*
X4226272Y855273D2*
Y670226D1*
X4334551D1*
X4336513D2*
Y855273D1*
X4297150D1*
X4226272D2*
X4265635D1*
G03X4297150Y855273I15758J-1844D01*
G01*
X3889923Y1125612D2*
D91*
X3886120Y1123711D1*
X3884219Y1117963D1*
Y1114160D1*
X3886120Y1108412D1*
X3891868Y1104565D1*
X3901419Y1102664D1*
X3910969D1*
X3918619Y1104565D1*
X3922466Y1108412D1*
X3924367Y1114160D1*
Y1116061D1*
X3922466Y1121765D1*
X3918619Y1125612D1*
X3912871Y1127513D1*
X3910970D1*
X3905222Y1125612D1*
X3901419Y1121765D1*
X3899518Y1116062D1*
Y1114160D1*
X3901419Y1108412D1*
X3905221Y1104565D1*
X3910969Y1102664D1*
X3884175Y1166659D2*
X3924367D1*
X3884175Y1139865D1*
X3924367D1*
X3891868Y1179011D2*
X3889923Y1182857D1*
X3884219Y1188606D1*
X3924367Y1188605D1*
X3884219Y1204804D2*
Y1225806D1*
X3899518Y1214354D1*
Y1220102D1*
X3901419Y1223905D1*
X3903320Y1225806D1*
X3909068Y1227752D1*
X3912871D1*
X3918619Y1225806D1*
X3922466Y1222004D1*
X3924367Y1216255D1*
Y1210507D1*
X3922466Y1204804D1*
X3920520Y1202902D1*
X3916718Y1200957D1*
X3924367Y1247752D2*
X3884219Y1266898D1*
Y1240103D1*
X561985Y1560907D2*
Y1520715D1*
X575383D1*
X581131Y1522660D1*
X584977Y1526463D1*
X586879Y1530309D1*
X588780Y1536013D1*
Y1545608D1*
X586879Y1551356D1*
X584977Y1555159D1*
X581131Y1559005D1*
X575383Y1560907D1*
X561985D1*
X601131Y1553213D2*
X604978Y1555159D1*
X610726Y1560862D1*
Y1520715D1*
X1001128Y1560270D2*
Y1520078D1*
X1014525D1*
X1020273Y1522024D1*
X1024120Y1525826D1*
X1026021Y1529673D1*
X1027923Y1535377D1*
Y1544971D1*
X1026021Y1550719D1*
X1024120Y1554522D1*
X1020273Y1558369D1*
X1014525Y1560270D1*
X1001128D1*
X1042220Y1550675D2*
Y1552577D1*
X1044121Y1556423D1*
X1046022Y1558325D1*
X1049869Y1560226D1*
X1057518D1*
X1061321Y1558325D1*
X1063222Y1556423D1*
X1065168Y1552577D1*
Y1548774D1*
X1063222Y1544927D1*
X1059419Y1539223D1*
X1040274Y1520078D1*
X1067069D1*
X1454562Y1543632D2*
Y1503440D1*
X1467960D1*
X1473708Y1505386D1*
X1477555Y1509188D1*
X1479456Y1513035D1*
X1481357Y1518739D1*
Y1528334D1*
X1479456Y1534082D1*
X1477555Y1537884D1*
X1473708Y1541731D1*
X1467960Y1543632D1*
X1454562D1*
X1497555Y1543588D2*
X1518558D1*
X1507106Y1528289D1*
X1512854D1*
X1516656Y1526388D1*
X1518558Y1524487D1*
X1520503Y1518739D1*
Y1514936D1*
X1518558Y1509188D1*
X1514755Y1505342D1*
X1509007Y1503440D1*
X1503259D1*
X1497555Y1505342D1*
X1495654Y1507287D1*
X1493709Y1511090D1*
X1902957Y1545462D2*
Y1505270D1*
X1916354D1*
X1922102Y1507215D1*
X1925949Y1511018D1*
X1927850Y1514864D1*
X1929752Y1520568D1*
Y1530163D1*
X1927850Y1535911D1*
X1925949Y1539714D1*
X1922102Y1543560D1*
X1916354Y1545462D1*
X1902957D1*
X1961248Y1505270D2*
Y1545417D1*
X1942103Y1518667D1*
X1970799D1*
X2353156Y1564048D2*
Y1523856D1*
X2366553D1*
X2372301Y1525802D1*
X2376148Y1529604D1*
X2378049Y1533451D1*
X2379950Y1539155D1*
Y1548750D1*
X2378049Y1554498D1*
X2376148Y1558300D1*
X2372301Y1562147D1*
X2366553Y1564048D1*
X2353156D1*
X2415250Y1564004D2*
X2396148D1*
X2394247Y1546804D1*
X2396148Y1548705D1*
X2401896Y1550651D1*
X2407600D1*
X2413348Y1548705D1*
X2417195Y1544903D1*
X2419096Y1539155D1*
Y1535352D1*
X2417195Y1529604D1*
X2413348Y1525758D1*
X2407600Y1523856D1*
X2401896D1*
X2396148Y1525758D1*
X2394247Y1527703D1*
X2392302Y1531506D1*
X2799502Y1570197D2*
Y1530005D1*
X2812900D1*
X2818648Y1531950D1*
X2822495Y1535753D1*
X2824396Y1539599D1*
X2826297Y1545303D1*
Y1554898D1*
X2824396Y1560646D1*
X2822495Y1564449D1*
X2818648Y1568295D1*
X2812900Y1570197D1*
X2799502D1*
X2861596Y1564449D2*
X2859695Y1568251D1*
X2853947Y1570152D1*
X2850145D1*
X2844396Y1568251D1*
X2840550Y1562503D1*
X2838648Y1552952D1*
Y1543402D1*
X2840550Y1535753D1*
X2844396Y1531906D1*
X2850145Y1530005D1*
X2852046D1*
X2857750Y1531906D1*
X2861596Y1535753D1*
X2863498Y1541501D1*
Y1543402D1*
X2861596Y1549150D1*
X2857750Y1552952D1*
X2852046Y1554854D1*
X2850145D1*
X2844396Y1552952D1*
X2840550Y1549150D1*
X2838648Y1543402D1*
X2796056Y453977D2*
Y413785D1*
X2809453D1*
X2815201Y415731D1*
X2819048Y419533D1*
X2820949Y423380D1*
X2822851Y429084D1*
Y438679D1*
X2820949Y444427D1*
X2819048Y448229D1*
X2815201Y452076D1*
X2809453Y453977D1*
X2796056D1*
X2842851Y413785D2*
X2861997Y453933D1*
X2835202D1*
X2344133Y473068D2*
Y432876D1*
X2357530D1*
X2363278Y434821D1*
X2367125Y438624D1*
X2369027Y442471D1*
X2370928Y448175D1*
Y457769D1*
X2369027Y463517D1*
X2367125Y467320D1*
X2363278Y471167D1*
X2357530Y473068D1*
X2344133D1*
X2392830Y473024D2*
X2387126Y471122D1*
X2385180Y467320D1*
Y463473D1*
X2387126Y459671D1*
X2390928Y457725D1*
X2398578Y455824D1*
X2404326Y453923D1*
X2408128Y450076D1*
X2410030Y446273D1*
Y440525D1*
X2408128Y436723D1*
X2406227Y434777D1*
X2400479Y432876D1*
X2392830D1*
X2387126Y434777D1*
X2385180Y436723D1*
X2383279Y440525D1*
Y446273D1*
X2385180Y450076D1*
X2389027Y453923D1*
X2394731Y455824D1*
X2402380Y457725D1*
X2406227Y459671D1*
X2408128Y463473D1*
Y467320D1*
X2406227Y471122D1*
X2400479Y473024D1*
X2392830D1*
X1875150Y472603D2*
Y432411D1*
X1888547D1*
X1894295Y434357D1*
X1898142Y438159D1*
X1900043Y442006D1*
X1901944Y447710D1*
Y457305D1*
X1900043Y463053D1*
X1898142Y466855D1*
X1894295Y470702D1*
X1888547Y472603D1*
X1875150D1*
X1939189Y459206D2*
X1937244Y453458D1*
X1933441Y449611D1*
X1927693Y447710D1*
X1925792D1*
X1920044Y449611D1*
X1916241Y453458D1*
X1914296Y459206D1*
Y461107D1*
X1916241Y466855D1*
X1920044Y470658D1*
X1925792Y472559D1*
X1927693D1*
X1933441Y470658D1*
X1937244Y466855D1*
X1939189Y459206D1*
Y449611D1*
X1937244Y440061D1*
X1933441Y434313D1*
X1927693Y432411D1*
X1923890D1*
X1918142Y434313D1*
X1916241Y438159D1*
X1427034Y472690D2*
Y432498D1*
X1440432D1*
X1446180Y434443D1*
X1450026Y438246D1*
X1451928Y442093D1*
X1453829Y447797D1*
Y457391D1*
X1451928Y463139D1*
X1450026Y466942D1*
X1446180Y470789D1*
X1440432Y472690D1*
X1427034D1*
X1466180Y464996D2*
X1470027Y466942D1*
X1475775Y472646D1*
Y432498D1*
X1499623Y472646D2*
X1493875Y470745D1*
X1490028Y464996D1*
X1488126Y455446D1*
Y449698D1*
X1490028Y440147D1*
X1493875Y434399D1*
X1499623Y432498D1*
X1503425D1*
X1509173Y434399D1*
X1512976Y440147D1*
X1514921Y449698D1*
Y455446D1*
X1512976Y464996D1*
X1509173Y470745D1*
X1503425Y472646D1*
X1499623D1*
X1512976Y464996D2*
X1490028Y440147D1*
X994037Y468336D2*
Y428144D1*
X1007434D1*
X1013182Y430089D1*
X1017029Y433892D1*
X1018930Y437738D1*
X1020832Y443442D1*
Y453037D1*
X1018930Y458785D1*
X1017029Y462588D1*
X1013182Y466434D1*
X1007434Y468336D1*
X994037D1*
X1033183Y460642D2*
X1037030Y462588D1*
X1042778Y468291D1*
Y428144D1*
X1055129Y460642D2*
X1058976Y462588D1*
X1064724Y468291D1*
Y428144D1*
X525095Y470204D2*
Y430012D1*
X538492D1*
X544240Y431958D1*
X548087Y435760D1*
X549988Y439607D1*
X551889Y445311D1*
Y454906D1*
X549988Y460654D1*
X548087Y464456D1*
X544240Y468303D1*
X538492Y470204D1*
X525095D1*
X564241Y462511D2*
X568087Y464456D1*
X573835Y470160D1*
Y430012D1*
X588132Y460610D2*
Y462511D1*
X590034Y466358D1*
X591935Y468259D1*
X595782Y470160D1*
X603431D1*
X607233Y468259D1*
X609135Y466358D1*
X611080Y462511D1*
Y458708D1*
X609135Y454862D1*
X605332Y449158D1*
X586187Y430012D1*
X612982D1*
X3624501Y1115090D2*
Y1084492D1*
X3622600Y1078744D1*
X3620654Y1076843D1*
X3616852Y1074898D1*
X3613005D1*
X3609202Y1076843D1*
X3607301Y1078744D1*
X3605356Y1084492D1*
Y1088295D1*
X3659800Y1115045D2*
X3640699D1*
X3638798Y1097846D1*
X3640699Y1099747D1*
X3646447Y1101692D1*
X3652151D1*
X3657899Y1099747D1*
X3661746Y1095944D1*
X3663647Y1090196D1*
Y1086394D1*
X3661746Y1080646D1*
X3657899Y1076799D1*
X3652151Y1074898D1*
X3646447D1*
X3640699Y1076799D1*
X3638798Y1078744D1*
X3636852Y1082547D1*
X697456Y1109577D2*
Y1078980D1*
X695554Y1073232D1*
X693609Y1071331D1*
X689806Y1069385D1*
X685959D1*
X682157Y1071331D1*
X680256Y1073232D1*
X678310Y1078980D1*
Y1082782D1*
X734700Y1096180D2*
X732755Y1090432D1*
X728952Y1086585D1*
X723204Y1084684D1*
X721303D1*
X715555Y1086585D1*
X711752Y1090432D1*
X709807Y1096180D1*
Y1098081D1*
X711752Y1103829D1*
X715555Y1107632D1*
X721303Y1109533D1*
X723204D1*
X728952Y1107632D1*
X732755Y1103829D1*
X734700Y1096180D1*
Y1086585D1*
X732755Y1077034D1*
X728952Y1071286D1*
X723204Y1069385D1*
X719402D1*
X713654Y1071286D1*
X711752Y1075133D1*
X1135532Y1097077D2*
Y1066480D1*
X1133631Y1060732D1*
X1131685Y1058831D1*
X1127883Y1056885D1*
X1124036D1*
X1120233Y1058831D1*
X1118332Y1060732D1*
X1116386Y1066480D1*
Y1070282D1*
X1147883Y1089384D2*
X1151730Y1091329D1*
X1157478Y1097033D1*
Y1056885D1*
X1181325Y1097033D2*
X1175577Y1095132D1*
X1171731Y1089384D1*
X1169829Y1079833D1*
Y1074085D1*
X1171731Y1064534D1*
X1175577Y1058786D1*
X1181325Y1056885D1*
X1185128D1*
X1190876Y1058786D1*
X1194679Y1064534D1*
X1196624Y1074085D1*
Y1079833D1*
X1194679Y1089384D1*
X1190876Y1095132D1*
X1185128Y1097033D1*
X1181325D1*
X1194679Y1089384D2*
X1171731Y1064534D1*
X1594132Y1097077D2*
Y1066480D1*
X1592230Y1060732D1*
X1590285Y1058831D1*
X1586482Y1056885D1*
X1582636D1*
X1578833Y1058831D1*
X1576932Y1060732D1*
X1574986Y1066480D1*
Y1070282D1*
X1606483Y1089384D2*
X1610330Y1091329D1*
X1616078Y1097033D1*
Y1056885D1*
X1628429Y1089384D2*
X1632276Y1091329D1*
X1638024Y1097033D1*
Y1056885D1*
X2023032Y1097077D2*
Y1066480D1*
X2021131Y1060732D1*
X2019185Y1058831D1*
X2015383Y1056885D1*
X2011536D1*
X2007733Y1058831D1*
X2005832Y1060732D1*
X2003886Y1066480D1*
Y1070282D1*
X2035383Y1089384D2*
X2039230Y1091329D1*
X2044978Y1097033D1*
Y1056885D1*
X2059275Y1087482D2*
Y1089384D1*
X2061176Y1093230D1*
X2063077Y1095132D1*
X2066924Y1097033D1*
X2074573D1*
X2078376Y1095132D1*
X2080277Y1093230D1*
X2082223Y1089384D1*
Y1085581D1*
X2080277Y1081734D1*
X2076475Y1076031D1*
X2057329Y1056885D1*
X2084124D1*
X2485532Y1097077D2*
Y1066480D1*
X2483631Y1060732D1*
X2481685Y1058831D1*
X2477883Y1056885D1*
X2474036D1*
X2470233Y1058831D1*
X2468332Y1060732D1*
X2466386Y1066480D1*
Y1070282D1*
X2497883Y1089384D2*
X2501730Y1091329D1*
X2507478Y1097033D1*
Y1056885D1*
X2523676Y1097033D2*
X2544679D1*
X2533227Y1081734D1*
X2538975D1*
X2542777Y1079833D1*
X2544679Y1077932D1*
X2546624Y1072184D1*
Y1068381D1*
X2544679Y1062633D1*
X2540876Y1058786D1*
X2535128Y1056885D1*
X2529380D1*
X2523676Y1058786D1*
X2521775Y1060732D1*
X2519829Y1064534D1*
X2934581Y1109577D2*
Y1078980D1*
X2932680Y1073232D1*
X2930734Y1071331D1*
X2926932Y1069385D1*
X2923085D1*
X2919283Y1071331D1*
X2917381Y1073232D1*
X2915436Y1078980D1*
Y1082782D1*
X2946933Y1101884D2*
X2950779Y1103829D1*
X2956527Y1109533D1*
Y1069385D1*
X2988024D2*
Y1109533D1*
X2968879Y1082782D1*
X2997575D1*
X685521Y690580D2*
Y659983D1*
X683620Y654235D1*
X681675Y652333D1*
X677872Y650388D1*
X674025D1*
X670223Y652333D1*
X668321Y654235D1*
X666376Y659983D1*
Y663785D1*
X697873Y682886D2*
X701719Y684832D1*
X707467Y690536D1*
Y650388D1*
X727468D2*
X746614Y690536D1*
X719819D1*
X1123870Y682229D2*
Y651632D1*
X1121969Y645884D1*
X1120023Y643983D1*
X1116221Y642037D1*
X1112374D1*
X1108572Y643983D1*
X1106670Y645884D1*
X1104725Y651632D1*
Y655435D1*
X1136222Y674536D2*
X1140068Y676481D1*
X1145816Y682185D1*
Y642037D1*
X1167718Y682185D2*
X1162015Y680284D1*
X1160069Y676481D1*
Y672635D1*
X1162015Y668832D1*
X1165817Y666887D1*
X1173466Y664985D1*
X1179214Y663084D1*
X1183017Y659237D1*
X1184918Y655435D1*
Y649687D1*
X1183017Y645884D1*
X1181116Y643939D1*
X1175368Y642037D1*
X1167718D1*
X1162015Y643939D1*
X1160069Y645884D1*
X1158168Y649687D1*
Y655435D1*
X1160069Y659237D1*
X1163916Y663084D1*
X1169620Y664985D1*
X1177269Y666887D1*
X1181116Y668832D1*
X1183017Y672635D1*
Y676481D1*
X1181116Y680284D1*
X1175368Y682185D1*
X1167718D1*
X1572204Y681682D2*
Y651085D1*
X1570303Y645337D1*
X1568357Y643436D1*
X1564555Y641490D1*
X1560708D1*
X1556906Y643436D1*
X1555004Y645337D1*
X1553059Y651085D1*
Y654887D1*
X1584556Y673989D2*
X1588402Y675934D1*
X1594150Y681638D1*
Y641490D1*
X1631395Y668285D2*
X1629450Y662537D1*
X1625647Y658690D1*
X1619899Y656789D1*
X1617998D1*
X1612250Y658690D1*
X1608447Y662537D1*
X1606502Y668285D1*
Y670186D1*
X1608447Y675934D1*
X1612250Y679737D1*
X1617998Y681638D1*
X1619899D1*
X1625647Y679737D1*
X1629450Y675934D1*
X1631395Y668285D1*
Y658690D1*
X1629450Y649139D1*
X1625647Y643391D1*
X1619899Y641490D1*
X1616097D1*
X1610349Y643391D1*
X1608447Y647238D1*
X2005721Y687029D2*
Y656431D1*
X2003819Y650683D1*
X2001874Y648782D1*
X1998071Y646837D1*
X1994225D1*
X1990422Y648782D1*
X1988521Y650683D1*
X1986575Y656431D1*
Y660234D1*
X2020017Y677434D2*
Y679335D1*
X2021919Y683182D1*
X2023820Y685083D1*
X2027667Y686984D1*
X2035316D1*
X2039119Y685083D1*
X2041020Y683182D1*
X2042965Y679335D1*
Y675533D1*
X2041020Y671686D1*
X2037217Y665982D1*
X2018072Y646837D1*
X2044867D1*
X2068714Y686984D2*
X2062966Y685083D1*
X2059119Y679335D1*
X2057218Y669784D1*
Y664036D1*
X2059119Y654486D1*
X2062966Y648738D1*
X2068714Y646837D1*
X2072517D1*
X2078265Y648738D1*
X2082067Y654486D1*
X2084013Y664036D1*
Y669784D1*
X2082067Y679335D1*
X2078265Y685083D1*
X2072517Y686984D1*
X2068714D1*
X2082067Y679335D2*
X2059119Y654486D1*
X2464734Y682756D2*
Y652158D1*
X2462833Y646410D1*
X2460887Y644509D1*
X2457085Y642564D1*
X2453238D1*
X2449435Y644509D1*
X2447534Y646410D1*
X2445589Y652158D1*
Y655961D1*
X2479031Y673161D2*
Y675062D1*
X2480932Y678909D1*
X2482833Y680810D1*
X2486680Y682711D1*
X2494329D1*
X2498132Y680810D1*
X2500033Y678909D1*
X2501979Y675062D1*
Y671260D1*
X2500033Y667413D1*
X2496231Y661709D1*
X2477085Y642564D1*
X2503880D1*
X2516231Y675062D2*
X2520078Y677008D1*
X2525826Y682711D1*
Y642564D1*
X2906635Y682907D2*
Y652309D1*
X2904734Y646561D1*
X2902789Y644660D1*
X2898986Y642715D1*
X2895139D1*
X2891337Y644660D1*
X2889435Y646561D1*
X2887490Y652309D1*
Y656112D1*
X2920932Y673312D2*
Y675213D1*
X2922833Y679060D1*
X2924735Y680961D1*
X2928581Y682862D1*
X2936231D1*
X2940033Y680961D1*
X2941935Y679060D1*
X2943880Y675213D1*
Y671410D1*
X2941935Y667564D1*
X2938132Y661860D1*
X2918987Y642715D1*
X2945781D1*
X2960078Y673312D2*
Y675213D1*
X2961980Y679060D1*
X2963881Y680961D1*
X2967728Y682862D1*
X2975377D1*
X2979179Y680961D1*
X2981081Y679060D1*
X2983026Y675213D1*
Y671410D1*
X2981081Y667564D1*
X2977278Y661860D1*
X2958133Y642715D1*
X2984927D1*
X4465321Y729910D2*
Y770102D1*
X4450023Y729910D1*
X4434724Y770102D1*
Y729910D1*
X4477673Y770102D2*
Y729910D1*
X4494917D1*
X4500665Y731856D1*
X4502566Y733757D1*
X4504467Y737559D1*
Y743307D1*
X4502566Y747154D1*
X4500665Y749055D1*
X4494917Y750957D1*
X4500665Y752902D1*
X4502566Y754803D1*
X4504467Y758606D1*
Y762453D1*
X4502566Y766255D1*
X4500665Y768201D1*
X4494917Y770102D1*
X4477673D1*
Y750957D2*
X4494917D1*
X4516819Y762409D2*
X4520665Y764354D1*
X4526413Y770058D1*
Y729910D1*
X4565560Y764354D2*
X4561757Y768201D1*
X4556009Y770102D1*
X4548360D1*
X4542612Y768201D1*
X4538765Y764354D1*
Y760552D1*
X4540710Y756705D1*
X4542612Y754803D1*
X4546414Y752902D1*
X4557910Y749055D1*
X4561757Y747154D1*
X4563658Y745209D1*
X4565560Y741406D1*
Y735658D1*
X4561757Y731856D1*
X4556009Y729910D1*
X4548360D1*
X4542612Y731856D1*
X4538765Y735658D1*
M02*
